<?xml version="1.0" encoding="utf-8"?>
<!-- Svg Vector Icons : http://www.onlinewebfonts.com/icon -->
<!DOCTYPE svg PUBLIC "-//W3C//DTD SVG 1.1//EN" "http://www.w3.org/Graphics/SVG/1.1/DTD/svg11.dtd">
<svg version="1.1" xmlns="http://www.w3.org/2000/svg" xmlns:xlink="http://www.w3.org/1999/xlink" x="0px" y="0px" viewBox="0 0 256 256" enable-background="new 0 0 256 256" xml:space="preserve">
<metadata> Svg Vector Icons : http://www.onlinewebfonts.com/icon </metadata>
<g><g><path fill="#FFFFFF" d="M120,91.8h-9.3v13.8h9.3c5.1,0,7.7-2.4,7.9-7.3C127.7,94,125,91.8,120,91.8z"/><path fill="#FFFFFF" d="M227,24.4H42.7c-10.5,0-19,8.5-19,19v129c0,10.5,8.5,19,19,19h92.1v50.4l50.8-50.4H227c10.5,0,19-8.5,19-19v-129C246,32.9,237.5,24.4,227,24.4z M55.2,129.6c-11.2,0-20.3-9.1-20.3-20.3C34.9,98.1,44,89,55.2,89c11.2,0,20.3,9.1,20.3,20.3C75.5,120.5,66.4,129.6,55.2,129.6z M129.3,135.3c-1.1-4.5-1.8-9.2-2-14.1c-0.6-4.5-2.1-6.8-4.8-6.8h-11.8v20.9H99.4V83.1h22.3c11.9,0.4,17.9,4.9,18.1,13.6c-0.2,6.8-3.8,11-10.7,12.7v0.3c5.1,0.6,8.2,4.4,9.3,11.6c0,0.6,0.1,1.1,0.3,1.7c0.4,6.4,1.3,10.5,2.8,12.4L129.3,135.3L129.3,135.3z M183.2,135.3h-35.9V83.1h35v8.8h-23.7v12.1h22v8.8h-22v13.8h24.6V135.3z M211.4,128.2c6.4-0.2,9.8-3.5,10.2-9.9h11.8c-0.7,11.5-8.1,17.3-22,17.5c-14.1-0.4-21.4-9.2-21.7-26.5c0.4-17.7,7.6-26.8,21.7-27.4c13.9,0.4,21.3,6.4,22,18.1h-11.8c-0.4-6.2-3.8-9.5-10.2-9.9c-6.2,0.4-9.5,6.8-9.9,19.2C201.9,121.7,205.2,128,211.4,128.2z"/><path fill="#FFFFFF" d="M27.2,14.1H11.6c-0.9,0-1.6,0.7-1.6,1.6v10.9c0,0.9,0.7,1.6,1.6,1.6h6.9v5.4l5.5-5.4h3.2c0.9,0,1.6-0.7,1.6-1.6V15.7C28.8,14.9,28.1,14.1,27.2,14.1z M27.8,26c0,0.8-0.6,1.4-1.4,1.4h-3.1l-3.8,3.8v-3.8h-6.9c-0.8,0-1.4-0.6-1.4-1.4v-9.7c0-0.8,0.6-1.4,1.4-1.4h13.9c0.8,0,1.4,0.7,1.4,1.4L27.8,26L27.8,26z"/><path fill="#FFFFFF" d="M11.9,21.3c0,0.8,0.7,1.5,1.5,1.5c0.8,0,1.5-0.7,1.5-1.5l0,0c0-0.8-0.7-1.5-1.5-1.5C12.6,19.8,11.9,20.4,11.9,21.3z"/><path fill="#FFFFFF" d="M19.7,22.2c-0.1-0.5-0.3-0.8-0.7-0.9v0c0.5-0.1,0.8-0.5,0.8-1c0-0.7-0.5-1-1.3-1h-1.7v3.9h0.8v-1.6h0.9c0.2,0,0.3,0.2,0.4,0.5c0,0.4,0.1,0.7,0.1,1.1h0.9c-0.1-0.1-0.2-0.5-0.2-0.9C19.7,22.3,19.7,22.2,19.7,22.2z M18.3,21h-0.7v-1h0.7c0.4,0,0.6,0.2,0.6,0.5C18.9,20.8,18.7,21,18.3,21z"/><path fill="#FFFFFF" d="M21.2,21.5h1.7v-0.6h-1.7V20H23v-0.6h-2.6v3.9H23v-0.7h-1.9L21.2,21.5L21.2,21.5z"/><path fill="#FFFFFF" d="M25.2,19.9c0.5,0,0.7,0.3,0.8,0.7h0.9c0-0.9-0.6-1.3-1.7-1.3c-1.1,0-1.6,0.7-1.6,2.1c0,1.3,0.6,2,1.6,2c1,0,1.6-0.5,1.7-1.3h-0.9c0,0.5-0.3,0.7-0.8,0.7c-0.5,0-0.7-0.5-0.7-1.4C24.4,20.4,24.7,19.9,25.2,19.9z"/></g></g>
</svg>